<svg width="42" height="42" viewBox="0 0 42 42" fill="none" xmlns="http://www.w3.org/2000/svg">
<path d="M41.0138 6.39249L37.2133 5.10998L38.5459 3.77736C38.4682 3.42306 38.4328 3.22694 38.3881 3.08559C38.4488 2.61405 37.8928 2.36013 37.5716 2.68138L36.0208 4.23216C35.908 3.04815 35.7476 1.93112 35.4032 0.428678C35.3263 0.0942615 34.9311 -0.060981 34.6475 0.143063C32.2522 1.85878 30.2699 2.46298 29.9835 4.66552C29.872 4.5284 29.7601 4.39634 29.6476 4.27628C29.4979 4.11578 29.2603 4.0766 29.0669 4.1777C26.1425 5.7151 26.1425 6.2124 26.1425 6.39944C26.1425 6.60265 26.2609 6.77662 27.1216 8.33366C27.6693 9.32634 28.4842 10.2757 29.0203 11.2327L25.633 14.6199C24.7546 13.7443 24.362 13.4723 23.0109 12.5023C17.3047 8.36327 9.66881 7.6752 5.11592 12.6895C5.1265 12.6744 5.13503 12.6575 5.14569 12.6424C4.86948 12.8531 4.44994 13.1106 4.06595 13.5345C-1.4177 19.5884 0.182998 30.3055 5.47428 35.811C8.41831 38.8741 10.727 40.6813 14.471 41.5204C18.0978 42.3332 21.6511 42.126 25.2845 39.7038C28.3363 37.6692 31.0332 33.5231 31.0823 29.4666C31.8514 24.6295 29.8853 19.4572 26.6324 15.6908L30.5157 11.8076C32.6111 13.1076 35.184 13.8242 35.5069 13.8242C35.8558 13.8242 35.9608 13.503 36.1331 13.3218C36.6095 12.7051 37.3299 11.7737 37.7017 11.2202C37.7788 11.1058 37.8032 10.9636 37.769 10.8296C37.6971 10.5472 37.5177 10.5597 37.2035 10.2951C38.0044 10.2553 38.835 10.1567 39.0382 10.0208C39.5579 9.67454 40.1206 8.88089 41.2656 7.11664C41.3475 6.99089 41.3664 6.83481 41.3171 6.69327C41.2678 6.55109 41.1557 6.44051 41.0138 6.39249V6.39249ZM27.2016 6.46136C27.5425 6.1846 28.3687 5.66518 29.1816 5.21843C29.5828 5.70433 30.009 6.32901 30.4372 6.78742C30.8272 7.20536 31.4936 6.71648 31.2157 6.21935C30.6915 5.28225 30.9111 4.03426 31.7266 3.31769C32.5263 2.61454 33.5448 2.05793 34.6105 1.34745C35.1431 3.92427 35.0033 4.79409 35.1725 5.08048L34.1259 6.12709L33.7638 5.40294C33.6444 5.16346 33.3518 5.06614 33.1129 5.18557C32.8731 5.305 32.7758 5.5963 32.8956 5.83642C33.4553 6.89007 33.2464 6.63377 33.4351 6.81787L31.9046 8.34836L31.0937 7.4566C30.9136 7.25818 30.6065 7.24365 30.4081 7.42374C30.2097 7.60383 30.1952 7.9103 30.3753 8.10871L31.2175 9.0355L29.725 10.528C28.6878 8.80704 28.7775 9.41265 27.2016 6.46136V6.46136ZM17.7279 22.525C17.0058 21.9456 16.253 21.7195 15.9662 22.0278C15.6465 22.3715 16.0275 23.2455 16.8171 23.9799C18.1799 25.2473 19.5058 25.0452 18.6968 23.6265L20.0513 22.272C21.3984 24.5456 21.0568 27.2632 18.7017 27.4939C17.5462 27.6121 16.1912 27.0592 15.0708 26.0267C11.1197 22.3876 13.3629 17.2031 17.6973 20.0092C18.2416 20.3613 18.7163 20.6957 19.1443 21.1087L17.7279 22.525ZM19.836 20.417C19.3441 19.9396 18.806 19.5702 18.2249 19.194C16.0705 17.8007 13.9176 17.9498 12.7401 19.575C10.3806 22.8106 14.4728 28.884 18.7964 28.4601C21.6355 28.1799 22.89 24.9095 20.7543 21.569L23.4092 18.9141C27.9989 24.8025 26.5579 32.3721 20.4678 33.3301C17.8088 33.7465 14.8275 32.798 12.2921 30.7235C7.74021 26.9909 6.07296 20.7971 8.5762 16.9167C11.1709 12.8943 16.4589 13.1755 20.4195 16.0611C21.3247 16.7143 21.9858 17.2828 22.4541 17.7989L19.836 20.417ZM28.8236 33.0691C26.1371 37.7063 20.6462 38.959 15.3198 37.1531C15.2597 37.1373 15.206 37.1208 15.1343 37.0937C5.54149 33.7041 0.441636 22.1245 4.5997 15.0336C8.17402 8.85299 16.243 8.79092 22.4409 13.2883C23.5963 14.1271 24.03 14.3918 24.9469 15.3061L23.1406 17.1124C22.6274 16.5542 21.9277 15.9524 20.9891 15.275C16.4964 12.0027 10.6199 11.9585 7.76043 16.3909C4.99874 20.672 6.7554 27.4383 11.6769 31.4742C14.2033 33.5418 17.4584 34.7865 20.6185 34.2887C27.5283 33.202 29.2205 24.6872 24.1017 18.2216L25.9455 16.3779C29.8838 20.9691 31.8246 27.9156 28.8236 33.0691V33.0691ZM38.5453 9.18103C38.2044 9.25876 36.6617 9.41294 35.9015 9.32195C35.3558 9.26701 35.1509 9.99062 35.62 10.2344C35.9313 10.3964 36.2423 10.7604 36.6199 11.0723C36.2329 11.6066 35.7117 12.2799 35.3157 12.7923C33.8973 12.4279 32.4282 11.8183 31.2214 11.1019L33.2439 9.07942L33.4725 9.33269C33.6525 9.53229 33.9601 9.54757 34.1578 9.36807C34.3568 9.18925 34.3729 8.88215 34.1935 8.6831L33.931 8.39231L36.4471 5.87615L40.1099 7.11221C39.3491 8.26984 38.8707 8.93333 38.5453 9.18103V9.18103Z" fill="#292929"/>
</svg>
