<svg width="14" height="14" viewBox="0 0 14 14" fill="none" xmlns="http://www.w3.org/2000/svg">
<path fill-rule="evenodd" clip-rule="evenodd" d="M2.33325 1.33333C1.96506 1.33333 1.66659 1.63181 1.66659 2V11.3333C1.66659 11.7015 1.96506 12 2.33325 12H11.6666C12.0348 12 12.3333 11.7015 12.3333 11.3333V2C12.3333 1.63181 12.0348 1.33333 11.6666 1.33333H2.33325ZM0.333252 2C0.333252 0.89543 1.22868 0 2.33325 0H11.6666C12.7712 0 13.6666 0.89543 13.6666 2V11.3333C13.6666 12.4379 12.7712 13.3333 11.6666 13.3333H2.33325C1.22868 13.3333 0.333252 12.4379 0.333252 11.3333V2Z" fill="#7B8489"/>
<path fill-rule="evenodd" clip-rule="evenodd" d="M0.333252 4.66667C0.333252 4.29848 0.631729 4 0.999919 4H12.9999C13.3681 4 13.6666 4.29848 13.6666 4.66667C13.6666 5.03486 13.3681 5.33333 12.9999 5.33333H0.999919C0.631729 5.33333 0.333252 5.03486 0.333252 4.66667Z" fill="#7B8489"/>
</svg>
