<svg width="10" height="14" viewBox="0 0 10 14" fill="none" xmlns="http://www.w3.org/2000/svg">
<path fill-rule="evenodd" clip-rule="evenodd" d="M3.83301 1.75004C3.6783 1.75004 3.52993 1.8115 3.42053 1.9209C3.31113 2.03029 3.24967 2.17866 3.24967 2.33337V2.91671H6.74967V2.33337C6.74967 2.17866 6.68822 2.03029 6.57882 1.9209C6.46942 1.8115 6.32105 1.75004 6.16634 1.75004H3.83301ZM7.91634 2.91671V2.33337C7.91634 1.86925 7.73197 1.42413 7.40378 1.09594C7.07559 0.767748 6.63047 0.583374 6.16634 0.583374H3.83301C3.36888 0.583374 2.92376 0.767748 2.59557 1.09594C2.26738 1.42413 2.08301 1.86925 2.08301 2.33337V2.91671H0.916341C0.594175 2.91671 0.333008 3.17787 0.333008 3.50004V11.6667C0.333008 12.1308 0.517382 12.576 0.845571 12.9041C1.17376 13.2323 1.61888 13.4167 2.08301 13.4167H7.91634C8.38047 13.4167 8.82559 13.2323 9.15378 12.9041C9.48197 12.576 9.66634 12.1308 9.66634 11.6667V3.50004C9.66634 3.17787 9.40518 2.91671 9.08301 2.91671H7.91634ZM1.49967 4.08337V11.6667C1.49967 11.8214 1.56113 11.9698 1.67053 12.0792C1.77993 12.1886 1.9283 12.25 2.08301 12.25H7.91634C8.07105 12.25 8.21942 12.1886 8.32882 12.0792C8.43822 11.9698 8.49967 11.8214 8.49967 11.6667V4.08337H1.49967Z" fill="#F9530B"/>
</svg>
