<svg width="12" height="12" viewBox="0 0 12 12" fill="none" xmlns="http://www.w3.org/2000/svg">
<path d="M5.00426 8.50457L3.66666 9.8421V0.750326C3.66666 0.595614 3.6052 0.447243 3.49581 0.337845C3.38641 0.228452 3.23804 0.166992 3.08332 0.166992C2.92862 0.166992 2.78024 0.228452 2.67085 0.337845C2.56145 0.447243 2.49999 0.595614 2.49999 0.750326V9.8421L1.16241 8.50457C1.05239 8.39829 0.905041 8.33949 0.752091 8.34083C0.599141 8.34218 0.452835 8.40354 0.344679 8.51169C0.236529 8.61984 0.17518 8.76614 0.17385 8.91909C0.17252 9.07204 0.231314 9.21939 0.337574 9.32941L2.67091 11.6627C2.7804 11.7719 2.92872 11.8333 3.08335 11.8333C3.23799 11.8333 3.38631 11.7719 3.4958 11.6627L5.82916 9.32941C5.93579 9.21945 5.99488 9.07198 5.99371 8.9188C5.99255 8.76562 5.93118 8.61908 5.82286 8.51076C5.71459 8.40249 5.568 8.34112 5.41481 8.33996C5.26169 8.33879 5.11416 8.39794 5.00426 8.50457Z" fill="black"/>
<path d="M5.41732 2.49967H11.2507C11.4054 2.49967 11.5538 2.43821 11.6632 2.32882C11.7726 2.21942 11.834 2.07105 11.834 1.91634C11.834 1.76163 11.7726 1.61326 11.6632 1.50386C11.5538 1.39447 11.4054 1.33301 11.2507 1.33301H5.41732C5.26262 1.33301 5.11428 1.39447 5.00484 1.50386C4.89547 1.61326 4.83398 1.76163 4.83398 1.91634C4.83398 2.07105 4.89547 2.21942 5.00484 2.32882C5.11428 2.43821 5.26262 2.49967 5.41732 2.49967Z" fill="black"/>
<path d="M11.2507 3.66699H5.41732C5.26262 3.66699 5.11428 3.72845 5.00484 3.83784C4.89547 3.94724 4.83398 4.09561 4.83398 4.25033C4.83398 4.40503 4.89547 4.55341 5.00484 4.6628C5.11428 4.7722 5.26262 4.83366 5.41732 4.83366H11.2507C11.4054 4.83366 11.5538 4.7722 11.6632 4.6628C11.7726 4.55341 11.834 4.40503 11.834 4.25033C11.834 4.09561 11.7726 3.94724 11.6632 3.83784C11.5538 3.72845 11.4054 3.66699 11.2507 3.66699Z" fill="black"/>
<path d="M9.50065 6H5.41732C5.26262 6 5.11428 6.06148 5.00484 6.17086C4.89547 6.28023 4.83398 6.42863 4.83398 6.58333C4.83398 6.73803 4.89547 6.88643 5.00484 6.99581C5.11428 7.10524 5.26262 7.16667 5.41732 7.16667H9.50065C9.65541 7.16667 9.80375 7.10524 9.91318 6.99581C10.0226 6.88643 10.084 6.73803 10.084 6.58333C10.084 6.42863 10.0226 6.28023 9.91318 6.17086C9.80375 6.06148 9.65541 6 9.50065 6Z" fill="black"/>
</svg>
