<svg width="14" height="14" viewBox="0 0 14 14" fill="none" xmlns="http://www.w3.org/2000/svg">
<path fill-rule="evenodd" clip-rule="evenodd" d="M1.09594 2.26256C1.42413 1.93437 1.86925 1.75 2.33337 1.75H6.41671C6.73887 1.75 7.00004 2.01117 7.00004 2.33333C7.00004 2.6555 6.73887 2.91667 6.41671 2.91667H2.33337C2.17866 2.91667 2.03029 2.97812 1.9209 3.08752C1.8115 3.19692 1.75004 3.34529 1.75004 3.5V11.6667C1.75004 11.8214 1.8115 11.9697 1.9209 12.0791C2.03029 12.1885 2.17866 12.25 2.33337 12.25H10.5C10.6548 12.25 10.8031 12.1885 10.9125 12.0791C11.0219 11.9697 11.0834 11.8214 11.0834 11.6667V7.58333C11.0834 7.26117 11.3445 7 11.6667 7C11.9889 7 12.25 7.26117 12.25 7.58333V11.6667C12.25 12.1308 12.0657 12.5759 11.7375 12.9041C11.4093 13.2323 10.9642 13.4167 10.5 13.4167H2.33337C1.86925 13.4167 1.42413 13.2323 1.09594 12.9041C0.767748 12.5759 0.583374 12.1308 0.583374 11.6667V3.5C0.583374 3.03587 0.767748 2.59075 1.09594 2.26256Z" fill="#7B8489"/>
<path fill-rule="evenodd" clip-rule="evenodd" d="M11.6667 1.67924C11.4932 1.67924 11.3269 1.74815 11.2042 1.87082L5.77678 7.29824L5.46843 8.53163L6.70182 8.22328L12.1292 2.79586C12.2519 2.6732 12.3208 2.50682 12.3208 2.33334C12.3208 2.15986 12.2519 1.99349 12.1292 1.87082C12.0066 1.74815 11.8402 1.67924 11.6667 1.67924ZM10.3792 1.04586C10.7207 0.704404 11.1838 0.512573 11.6667 0.512573C12.1496 0.512573 12.6127 0.704404 12.9542 1.04586C13.2957 1.38733 13.4875 1.85044 13.4875 2.33334C13.4875 2.81624 13.2957 3.27936 12.9542 3.62082L7.41253 9.16249C7.33777 9.23725 7.2441 9.29029 7.14153 9.31593L4.8082 9.89926C4.60941 9.94896 4.39913 9.89071 4.25424 9.74582C4.10935 9.60093 4.05111 9.39065 4.1008 9.19187L4.68414 6.85853C4.70978 6.75596 4.76281 6.66229 4.83757 6.58753L10.3792 1.04586Z" fill="#7B8489"/>
</svg>
