<svg width="30" height="40" viewBox="0 0 30 40" fill="none" xmlns="http://www.w3.org/2000/svg">
<mask id="path-1-inside-1_403_19444" fill="white">
<path d="M0.792626 36.7722C0.50244 36.9894 0.278179 37.4208 0.220495 37.8705C0.137542 38.5194 0.393737 38.8557 0.88331 39.1286C1.10809 39.3346 1.38795 39.4589 1.69037 39.4982C2.61281 39.6182 2.85868 39.3903 9.38513 34.6809C9.595 34.661 9.81191 34.572 10.0082 34.4362C13.545 37.4535 19.3215 36.9654 21.9819 32.3577C23.0626 30.488 23.345 28.3022 22.6015 26.0895C24.353 26.0378 26.1262 25.9638 27.8523 25.8687C28.7323 25.8687 29.4481 25.15 29.4481 24.2671V6.44095C29.4481 5.55803 28.7306 4.83992 27.8759 4.83992C27.5983 4.83992 26.0818 4.70289 22.1511 4.56581C22.2205 3.96163 22.1851 3.68229 22.2099 3.223C22.2299 2.84511 22.2546 2.3754 21.9697 1.97102C21.5924 1.43539 20.9444 1.27999 20.3593 1.19817C17.2096 0.760247 14.0229 1.03807 10.9409 1.30707C10.5248 1.34356 9.95557 1.39359 9.50351 1.73146C9.04851 2.07285 8.77481 2.67559 8.77128 3.34426C8.76975 3.70394 8.69361 4.0836 8.7013 4.60551C7.01883 4.67633 5.36803 4.77562 3.81457 4.9029C3.34025 4.90934 2.90199 5.13092 2.60802 5.48353C1.61475 6.19228 1.56221 7.63349 1.55999 8.83981C1.55186 13.3126 1.54373 17.7854 1.5356 22.2582C1.53323 23.5739 1.61425 24.955 2.84464 25.5304C3.28243 25.8757 3.69226 25.849 3.79985 25.8681C4.98679 25.9375 6.24175 25.9957 7.68385 26.0496C7.31558 27.4589 7.34279 28.956 7.83512 30.4285C7.0604 30.6169 6.64692 31.4089 6.74203 32.2831C4.70576 33.8108 2.73505 35.3151 0.792626 36.7722ZM8.35513 27.5098C8.47579 25.7763 9.25688 24.1753 10.5542 23.0016C13.1903 20.6272 16.3208 21.3548 16.2367 21.3527C16.2386 21.3531 16.24 21.3543 16.242 21.3546C20.9814 22.0764 23.5328 27.8552 20.5494 31.9579C18.8276 34.3365 16.4635 34.5972 16.3979 34.6237C16.2876 34.6237 16.1821 34.6843 15.6374 34.7226V34.7238C15.6333 34.7244 15.6292 34.7244 15.6251 34.725C15.568 34.7256 15.5238 34.7285 15.5238 34.7285C11.5574 35.0281 8.04832 31.676 8.35513 27.5098V27.5098ZM9.67539 3.34955C9.67715 2.96166 9.81548 2.62733 10.045 2.45545C10.2911 2.2718 10.6784 2.23767 11.0198 2.20765C14.0008 1.9478 17.2984 1.65986 20.3059 2.10593C20.9292 2.75176 20.8331 3.64524 20.6343 4.51633C16.7816 4.41182 13.132 4.43091 9.60464 4.56979C9.60243 4.1187 9.67254 3.73607 9.67539 3.34955V3.34955ZM3.85695 5.80525C10.014 5.30389 18.2408 5.15686 27.8465 5.74344C28.2308 5.74344 28.544 6.05659 28.544 6.44095V14.6564C28.4311 15.5367 28.2026 16.1031 27.7805 16.5421C26.8161 17.5373 25.6479 17.6138 24.1959 17.6801V15.8205C24.1959 15.0506 23.572 14.4202 22.8056 14.4149C22.7971 14.4148 22.9249 14.4158 21.5483 14.4055C20.771 14.4055 20.1468 15.0372 20.1468 15.8111V17.8014C16.9915 17.9001 14.0599 17.882 11.2187 17.7471V15.8688C11.2187 15.143 10.6301 14.5479 9.90612 14.5426C9.89636 14.5425 10.0418 14.5436 8.4911 14.5326C7.76112 14.5326 7.16966 15.1255 7.16966 15.8588V17.4713C6.1654 17.382 5.34338 17.3584 4.6657 16.8635C4.16556 16.5014 3.32753 15.354 3.0014 14.1467C3.00213 12.0071 3.0266 10.0838 3.07703 8.26506C3.1471 5.8417 3.12729 6.50621 3.22242 6.1696C3.3372 5.95181 3.57206 5.81055 3.85695 5.80525V5.80525ZM23.2918 17.7311C23.2918 17.9825 23.1823 18.2197 22.9833 18.3986C22.2876 19.0267 21.0509 18.6057 21.0509 17.7311V15.8111C21.0509 15.5163 21.3004 15.3002 21.5512 15.3096L22.7991 15.319C23.0705 15.3208 23.2918 15.5456 23.2918 15.8205V17.7311V17.7311ZM10.3146 15.8688V17.7123C10.3146 17.9489 10.2069 18.1732 10.0115 18.3433C9.31331 18.9525 8.07377 18.5439 8.07377 17.7123C8.12908 15.1127 7.64531 15.4252 9.89965 15.4467C10.1286 15.4485 10.3146 15.638 10.3146 15.8688V15.8688ZM3.82634 24.9646C3.42793 24.9646 3.13472 24.6381 3.13472 24.26C3.13363 24.1997 3.03934 19.761 3.01192 16.3164C4.20644 18.1523 5.19152 18.2145 7.31873 18.393C7.94324 19.7892 10.0746 19.9543 10.9301 18.6401C12.6646 18.7263 14.427 18.7718 16.2531 18.7718C17.6107 18.7718 19.005 18.7465 20.4431 18.6991C21.2561 19.9355 23.2272 19.9063 23.9643 18.5946C25.7592 18.5273 27.3446 18.4309 28.544 17.0377V24.2671C28.544 24.6515 28.2338 24.9646 27.8276 24.9652C24.5229 25.1466 22.5271 25.1849 22.2417 25.1971C22.2292 25.1711 22.2209 25.1432 22.2081 25.1172C22.2139 25.1083 22.2098 25.1029 22.2044 25.1072C21.3159 23.2677 20.318 22.4198 20.3717 22.4801C20.3262 22.4149 20.1634 22.2779 20.0985 22.2234C18.3195 20.674 16.33 20.4443 16.3903 20.4629C12.8428 19.8451 9.32646 21.7991 7.98272 25.1556C6.43176 25.0995 5.10385 25.0388 3.82634 24.9646V24.9646ZM8.1831 31.2937C8.56335 32.0888 9.07883 32.8211 9.7256 33.4528C9.63882 33.6015 9.42232 33.7821 9.2975 33.7856C9.05087 33.7997 8.68298 33.6855 8.45343 33.5283C8.16677 33.3311 7.9484 33.0474 7.7465 32.6077C7.49865 32.0698 7.62223 31.3 8.1831 31.2937ZM7.0341 33.1947C7.21417 33.5382 7.41552 33.8204 7.65464 34.0425C5.64711 35.555 3.68928 37.101 1.86861 38.4668C1.74147 38.5304 1.27058 38.3814 1.13049 38.206C1.05691 38.0842 1.17228 37.6174 1.33474 37.4956C3.08553 36.1825 5.03406 34.698 7.0341 33.1947V33.1947Z"/>
</mask>
<path d="M0.792626 36.7722C0.50244 36.9894 0.278179 37.4208 0.220495 37.8705C0.137542 38.5194 0.393737 38.8557 0.88331 39.1286C1.10809 39.3346 1.38795 39.4589 1.69037 39.4982C2.61281 39.6182 2.85868 39.3903 9.38513 34.6809C9.595 34.661 9.81191 34.572 10.0082 34.4362C13.545 37.4535 19.3215 36.9654 21.9819 32.3577C23.0626 30.488 23.345 28.3022 22.6015 26.0895C24.353 26.0378 26.1262 25.9638 27.8523 25.8687C28.7323 25.8687 29.4481 25.15 29.4481 24.2671V6.44095C29.4481 5.55803 28.7306 4.83992 27.8759 4.83992C27.5983 4.83992 26.0818 4.70289 22.1511 4.56581C22.2205 3.96163 22.1851 3.68229 22.2099 3.223C22.2299 2.84511 22.2546 2.3754 21.9697 1.97102C21.5924 1.43539 20.9444 1.27999 20.3593 1.19817C17.2096 0.760247 14.0229 1.03807 10.9409 1.30707C10.5248 1.34356 9.95557 1.39359 9.50351 1.73146C9.04851 2.07285 8.77481 2.67559 8.77128 3.34426C8.76975 3.70394 8.69361 4.0836 8.7013 4.60551C7.01883 4.67633 5.36803 4.77562 3.81457 4.9029C3.34025 4.90934 2.90199 5.13092 2.60802 5.48353C1.61475 6.19228 1.56221 7.63349 1.55999 8.83981C1.55186 13.3126 1.54373 17.7854 1.5356 22.2582C1.53323 23.5739 1.61425 24.955 2.84464 25.5304C3.28243 25.8757 3.69226 25.849 3.79985 25.8681C4.98679 25.9375 6.24175 25.9957 7.68385 26.0496C7.31558 27.4589 7.34279 28.956 7.83512 30.4285C7.0604 30.6169 6.64692 31.4089 6.74203 32.2831C4.70576 33.8108 2.73505 35.3151 0.792626 36.7722ZM8.35513 27.5098C8.47579 25.7763 9.25688 24.1753 10.5542 23.0016C13.1903 20.6272 16.3208 21.3548 16.2367 21.3527C16.2386 21.3531 16.24 21.3543 16.242 21.3546C20.9814 22.0764 23.5328 27.8552 20.5494 31.9579C18.8276 34.3365 16.4635 34.5972 16.3979 34.6237C16.2876 34.6237 16.1821 34.6843 15.6374 34.7226V34.7238C15.6333 34.7244 15.6292 34.7244 15.6251 34.725C15.568 34.7256 15.5238 34.7285 15.5238 34.7285C11.5574 35.0281 8.04832 31.676 8.35513 27.5098V27.5098ZM9.67539 3.34955C9.67715 2.96166 9.81548 2.62733 10.045 2.45545C10.2911 2.2718 10.6784 2.23767 11.0198 2.20765C14.0008 1.9478 17.2984 1.65986 20.3059 2.10593C20.9292 2.75176 20.8331 3.64524 20.6343 4.51633C16.7816 4.41182 13.132 4.43091 9.60464 4.56979C9.60243 4.1187 9.67254 3.73607 9.67539 3.34955V3.34955ZM3.85695 5.80525C10.014 5.30389 18.2408 5.15686 27.8465 5.74344C28.2308 5.74344 28.544 6.05659 28.544 6.44095V14.6564C28.4311 15.5367 28.2026 16.1031 27.7805 16.5421C26.8161 17.5373 25.6479 17.6138 24.1959 17.6801V15.8205C24.1959 15.0506 23.572 14.4202 22.8056 14.4149C22.7971 14.4148 22.9249 14.4158 21.5483 14.4055C20.771 14.4055 20.1468 15.0372 20.1468 15.8111V17.8014C16.9915 17.9001 14.0599 17.882 11.2187 17.7471V15.8688C11.2187 15.143 10.6301 14.5479 9.90612 14.5426C9.89636 14.5425 10.0418 14.5436 8.4911 14.5326C7.76112 14.5326 7.16966 15.1255 7.16966 15.8588V17.4713C6.1654 17.382 5.34338 17.3584 4.6657 16.8635C4.16556 16.5014 3.32753 15.354 3.0014 14.1467C3.00213 12.0071 3.0266 10.0838 3.07703 8.26506C3.1471 5.8417 3.12729 6.50621 3.22242 6.1696C3.3372 5.95181 3.57206 5.81055 3.85695 5.80525V5.80525ZM23.2918 17.7311C23.2918 17.9825 23.1823 18.2197 22.9833 18.3986C22.2876 19.0267 21.0509 18.6057 21.0509 17.7311V15.8111C21.0509 15.5163 21.3004 15.3002 21.5512 15.3096L22.7991 15.319C23.0705 15.3208 23.2918 15.5456 23.2918 15.8205V17.7311V17.7311ZM10.3146 15.8688V17.7123C10.3146 17.9489 10.2069 18.1732 10.0115 18.3433C9.31331 18.9525 8.07377 18.5439 8.07377 17.7123C8.12908 15.1127 7.64531 15.4252 9.89965 15.4467C10.1286 15.4485 10.3146 15.638 10.3146 15.8688V15.8688ZM3.82634 24.9646C3.42793 24.9646 3.13472 24.6381 3.13472 24.26C3.13363 24.1997 3.03934 19.761 3.01192 16.3164C4.20644 18.1523 5.19152 18.2145 7.31873 18.393C7.94324 19.7892 10.0746 19.9543 10.9301 18.6401C12.6646 18.7263 14.427 18.7718 16.2531 18.7718C17.6107 18.7718 19.005 18.7465 20.4431 18.6991C21.2561 19.9355 23.2272 19.9063 23.9643 18.5946C25.7592 18.5273 27.3446 18.4309 28.544 17.0377V24.2671C28.544 24.6515 28.2338 24.9646 27.8276 24.9652C24.5229 25.1466 22.5271 25.1849 22.2417 25.1971C22.2292 25.1711 22.2209 25.1432 22.2081 25.1172C22.2139 25.1083 22.2098 25.1029 22.2044 25.1072C21.3159 23.2677 20.318 22.4198 20.3717 22.4801C20.3262 22.4149 20.1634 22.2779 20.0985 22.2234C18.3195 20.674 16.33 20.4443 16.3903 20.4629C12.8428 19.8451 9.32646 21.7991 7.98272 25.1556C6.43176 25.0995 5.10385 25.0388 3.82634 24.9646V24.9646ZM8.1831 31.2937C8.56335 32.0888 9.07883 32.8211 9.7256 33.4528C9.63882 33.6015 9.42232 33.7821 9.2975 33.7856C9.05087 33.7997 8.68298 33.6855 8.45343 33.5283C8.16677 33.3311 7.9484 33.0474 7.7465 32.6077C7.49865 32.0698 7.62223 31.3 8.1831 31.2937ZM7.0341 33.1947C7.21417 33.5382 7.41552 33.8204 7.65464 34.0425C5.64711 35.555 3.68928 37.101 1.86861 38.4668C1.74147 38.5304 1.27058 38.3814 1.13049 38.206C1.05691 38.0842 1.17228 37.6174 1.33474 37.4956C3.08553 36.1825 5.03406 34.698 7.0341 33.1947V33.1947Z" fill="#292929" stroke="#292929" stroke-width="2" mask="url(#path-1-inside-1_403_19444)"/>
<circle cx="15.0625" cy="27.5625" r="4.8125" fill="#1FDD47"/>
</svg>
