<svg width="12" height="13" viewBox="0 0 12 13" fill="none" xmlns="http://www.w3.org/2000/svg">
<path d="M6.9688 8.89686C6.94531 8.8736 6.91358 8.86055 6.88052 8.86055C6.84746 8.86055 6.81573 8.8736 6.79224 8.89686L4.97661 10.7125C4.13599 11.5531 2.71724 11.6422 1.78911 10.7125C0.859424 9.7828 0.948486 8.36561 1.78911 7.52499L3.60474 5.70936C3.65317 5.66093 3.65317 5.58124 3.60474 5.5328L2.98286 4.91093C2.95937 4.88766 2.92764 4.87461 2.89458 4.87461C2.86152 4.87461 2.82979 4.88766 2.8063 4.91093L0.990674 6.72655C-0.331201 8.04843 -0.331201 10.1875 0.990674 11.5078C2.31255 12.8281 4.45161 12.8297 5.77192 11.5078L7.58755 9.69218C7.63599 9.64374 7.63599 9.56405 7.58755 9.51561L6.9688 8.89686ZM11.0094 1.49061C9.68755 0.168738 7.54849 0.168738 6.22817 1.49061L4.41099 3.30624C4.38772 3.32973 4.37467 3.36146 4.37467 3.39452C4.37467 3.42758 4.38772 3.45931 4.41099 3.4828L5.0313 4.10311C5.07974 4.15155 5.15942 4.15155 5.20786 4.10311L7.02349 2.28749C7.86411 1.44686 9.28286 1.3578 10.211 2.28749C11.1407 3.21718 11.0516 4.63436 10.211 5.47499L8.39536 7.29061C8.3721 7.31411 8.35905 7.34583 8.35905 7.3789C8.35905 7.41196 8.3721 7.44368 8.39536 7.46718L9.01724 8.08905C9.06567 8.13749 9.14536 8.13749 9.1938 8.08905L11.0094 6.27343C12.3297 4.95155 12.3297 2.81249 11.0094 1.49061ZM7.53286 4.31718C7.50937 4.29391 7.47764 4.28086 7.44458 4.28086C7.41152 4.28086 7.37979 4.29391 7.3563 4.31718L3.81724 7.85468C3.79397 7.87817 3.78092 7.9099 3.78092 7.94296C3.78092 7.97602 3.79397 8.00775 3.81724 8.03124L4.43599 8.64999C4.48442 8.69843 4.56411 8.69843 4.61255 8.64999L8.15005 5.11249C8.19849 5.06405 8.19849 4.98436 8.15005 4.93593L7.53286 4.31718Z" fill="#22251D"/>
</svg>
