<svg width="12" height="10" viewBox="0 0 12 10" fill="none" xmlns="http://www.w3.org/2000/svg">
<path d="M0 0.99998C0 0.823169 0.0702379 0.6536 0.195262 0.528575C0.320286 0.403551 0.489856 0.333313 0.666667 0.333313H11.3333C11.5101 0.333313 11.6797 0.403551 11.8047 0.528575C11.9298 0.6536 12 0.823169 12 0.99998C12 1.17679 11.9298 1.34636 11.8047 1.47138C11.6797 1.59641 11.5101 1.66665 11.3333 1.66665H0.666667C0.489856 1.66665 0.320286 1.59641 0.195262 1.47138C0.0702379 1.34636 0 1.17679 0 0.99998ZM0 8.99998C0 8.82317 0.0702379 8.6536 0.195262 8.52857C0.320286 8.40355 0.489856 8.33331 0.666667 8.33331H11.3333C11.5101 8.33331 11.6797 8.40355 11.8047 8.52857C11.9298 8.6536 12 8.82317 12 8.99998C12 9.17679 11.9298 9.34636 11.8047 9.47139C11.6797 9.59641 11.5101 9.66665 11.3333 9.66665H0.666667C0.489856 9.66665 0.320286 9.59641 0.195262 9.47139C0.0702379 9.34636 0 9.17679 0 8.99998ZM0 4.99998C0 4.82317 0.0702379 4.6536 0.195262 4.52858C0.320286 4.40355 0.489856 4.33331 0.666667 4.33331H11.3333C11.5101 4.33331 11.6797 4.40355 11.8047 4.52858C11.9298 4.6536 12 4.82317 12 4.99998C12 5.17679 11.9298 5.34636 11.8047 5.47138C11.6797 5.59641 11.5101 5.66665 11.3333 5.66665H4.84133L3.07667 7.43198L1.31133 5.66665H0.666667C0.489856 5.66665 0.320286 5.59641 0.195262 5.47138C0.0702379 5.34636 0 5.17679 0 4.99998Z" fill="#22251D"/>
</svg>
