<svg width="16" height="12" viewBox="0 0 16 12" fill="none" xmlns="http://www.w3.org/2000/svg">
<path d="M14.1331 0.666748H1.68869C1.45295 0.666748 1.22685 0.760399 1.06015 0.927098C0.893455 1.0938 0.799805 1.31989 0.799805 1.55564V10.4445C0.799805 10.6803 0.893455 10.9064 1.06015 11.0731C1.22685 11.2398 1.45295 11.3334 1.68869 11.3334H14.1331C14.3689 11.3334 14.595 11.2398 14.7617 11.0731C14.9284 10.9064 15.022 10.6803 15.022 10.4445V1.55564C15.022 1.31989 14.9284 1.0938 14.7617 0.927098C14.595 0.760399 14.3689 0.666748 14.1331 0.666748V0.666748ZM13.4487 10.4445H2.42647L5.53758 7.22675L4.89758 6.60897L1.68869 9.92897V2.23119L7.21314 7.72897C7.37968 7.89453 7.60497 7.98745 7.8398 7.98745C8.07464 7.98745 8.29993 7.89453 8.46647 7.72897L14.1331 2.09341V9.87119L10.862 6.60008L10.2354 7.22675L13.4487 10.4445ZM2.27092 1.55564H13.4131L7.8398 7.09786L2.27092 1.55564Z" fill="#169B32"/>
</svg>
