<svg width="14" height="14" viewBox="0 0 14 14" fill="none" xmlns="http://www.w3.org/2000/svg">
<path d="M4.22873 0.692864C3.39673 0.481664 2.52473 0.571264 1.84153 0.953664C1.14553 1.34246 0.65753 2.03206 0.63353 2.95446C0.59673 4.39606 0.93033 6.33046 2.25513 8.60086C3.56313 10.8433 5.00713 12.1873 6.20553 12.9857C6.96233 13.4905 7.79833 13.5041 8.51273 13.1753C9.21673 12.8513 9.78793 12.2041 10.0847 11.4017C10.1586 11.2021 10.1883 10.9889 10.1717 10.7767C10.1551 10.5646 10.0927 10.3585 9.98873 10.1729L9.22553 8.81126C8.99092 8.3922 8.61335 8.07155 8.16182 7.90791C7.71028 7.74428 7.21494 7.74859 6.76633 7.92006L6.23353 8.12406C5.97513 8.22246 5.73753 8.17686 5.60313 8.04406C5.15113 7.60006 4.82793 6.99766 4.68153 6.34806C4.63513 6.14326 4.72953 5.90166 4.95513 5.73126L5.43593 5.36806C5.82463 5.07476 6.09297 4.64971 6.19062 4.17266C6.28827 3.6956 6.20852 3.19931 5.96633 2.77686L5.18873 1.42086C5.08571 1.24134 4.94763 1.08437 4.78271 0.959307C4.61779 0.83424 4.42939 0.743629 4.22873 0.692864ZM1.43353 2.97606C1.44953 2.35686 1.76313 1.91446 2.23193 1.65206C2.71353 1.38246 3.37113 1.30006 4.03193 1.46806C4.12876 1.49252 4.21967 1.53622 4.29925 1.59656C4.37883 1.65689 4.44544 1.73263 4.49513 1.81926L5.27193 3.17526C5.41722 3.42863 5.46512 3.72628 5.40665 4.01244C5.34819 4.29859 5.18736 4.5536 4.95433 4.72966L4.47353 5.09286C4.05753 5.40646 3.76953 5.94406 3.90073 6.52406C4.07833 7.30966 4.47113 8.05446 5.04233 8.61526C5.45993 9.02486 6.05513 9.04886 6.51913 8.87126L7.05193 8.66726C7.32112 8.56422 7.61841 8.56152 7.88943 8.65965C8.16045 8.75777 8.3871 8.95017 8.52793 9.20166L9.29033 10.5641C9.38633 10.7353 9.40233 10.9401 9.33433 11.1241C9.10233 11.7521 8.66633 12.2233 8.17833 12.4481C7.70073 12.6681 7.16073 12.6617 6.64953 12.3201C5.55273 11.5889 4.19353 10.3353 2.94553 8.19766C1.69673 6.05366 1.40073 4.26646 1.43433 2.97606H1.43353ZM9.19513 0.649665C9.10241 0.598106 8.99301 0.585493 8.89099 0.614598C8.78897 0.643704 8.70269 0.712145 8.65113 0.804865C8.59957 0.897584 8.58696 1.00699 8.61606 1.10901C8.64517 1.21103 8.71361 1.29731 8.80633 1.34886L9.11353 1.52006C10.0732 2.05319 10.8896 2.81074 11.4928 3.72799C12.096 4.64523 12.4682 5.69489 12.5775 6.78726L12.6031 7.03926C12.6062 7.0932 12.6201 7.14597 12.644 7.19438C12.668 7.24279 12.7015 7.28585 12.7426 7.32095C12.7837 7.35605 12.8314 7.38247 12.883 7.39862C12.9345 7.41476 12.9888 7.4203 13.0425 7.41489C13.0963 7.40949 13.1484 7.39325 13.1957 7.36716C13.243 7.34106 13.2845 7.30566 13.3178 7.26309C13.351 7.22051 13.3753 7.17164 13.3891 7.11942C13.403 7.0672 13.4061 7.01272 13.3983 6.95926L13.3735 6.70806C13.2515 5.48694 12.8355 4.31353 12.1612 3.28816C11.4869 2.26279 10.5744 1.41596 9.50153 0.820065L9.19513 0.649665ZM8.25753 2.79366C8.31218 2.70276 8.40069 2.63728 8.5036 2.61163C8.60652 2.58598 8.71541 2.60225 8.80633 2.65686L8.90553 2.71606C9.55129 3.10323 10.1053 3.626 10.5292 4.24826C10.9531 4.87051 11.2368 5.5774 11.3607 6.32006L11.3959 6.53366C11.406 6.58604 11.4055 6.63991 11.3944 6.69209C11.3834 6.74427 11.362 6.79371 11.3315 6.8375C11.3011 6.8813 11.2622 6.91856 11.2171 6.94709C11.1721 6.97563 11.1217 6.99487 11.0691 7.00367C11.0165 7.01248 10.9627 7.01067 10.9108 6.99836C10.8589 6.98605 10.81 6.96348 10.7669 6.93198C10.7239 6.90049 10.6876 6.8607 10.6601 6.81497C10.6327 6.76923 10.6147 6.71847 10.6071 6.66566L10.5711 6.45206C10.4664 5.82378 10.2266 5.22571 9.86818 4.69918C9.50975 4.17266 9.04127 3.73023 8.49513 3.40246L8.39593 3.34246C8.35085 3.31547 8.31154 3.27986 8.28022 3.23767C8.24891 3.19548 8.22622 3.14753 8.21344 3.09657C8.20066 3.04561 8.19805 2.99262 8.20575 2.94065C8.21345 2.88868 8.23132 2.83873 8.25833 2.79366H8.25753Z" fill="#169B32"/>
</svg>
