<svg width="90" height="90" viewBox="0 0 90 90" fill="none" xmlns="http://www.w3.org/2000/svg">
<circle cx="45" cy="45" r="45" fill="#22251D"/>
<path d="M19.5069 58.207H24.9807V48.5225H28.9809C34.2091 48.5225 38.1742 46.7329 38.1742 40.9082C38.1742 35.0132 33.8933 33.3641 28.7353 33.3641H19.5069V58.207ZM24.9807 37.9958H27.7879C29.8932 37.9958 32.4898 38.3467 32.4898 40.9082C32.4898 43.2241 30.5599 43.8907 28.63 43.8907H24.9807V37.9958ZM41.0123 58.207H46.2756V41.1538H41.0123V58.207ZM40.5912 35.7852C40.5912 37.4695 41.9597 38.8379 43.644 38.8379C45.3282 38.8379 46.6967 37.4695 46.6967 35.7852C46.6967 34.1009 45.3282 32.7325 43.644 32.7325C41.9597 32.7325 40.5912 34.1009 40.5912 35.7852ZM48.1973 58.207H54.6887L60.5837 48.2067L66.6541 58.207H73.5315L64.5487 45.1189L72.5841 33.3641H65.9523L60.8644 42.0661L55.566 33.3641H48.6885L56.8993 45.2241L48.1973 58.207Z" fill="white"/>
</svg>
