<svg width="14" height="12" viewBox="0 0 14 12" fill="none" xmlns="http://www.w3.org/2000/svg">
<path fill-rule="evenodd" clip-rule="evenodd" d="M1.24877 6C1.31252 6.11017 1.39704 6.25057 1.50174 6.41269C1.77067 6.8291 2.16893 7.38285 2.68598 7.93437C3.73072 9.04876 5.19138 10.0833 7 10.0833C8.80862 10.0833 10.2693 9.04876 11.314 7.93437C11.8311 7.38285 12.2293 6.8291 12.4983 6.41269C12.603 6.25057 12.6875 6.11017 12.7512 6C12.6875 5.88983 12.603 5.74943 12.4983 5.58731C12.2293 5.1709 11.8311 4.61715 11.314 4.06563C10.2693 2.95124 8.80862 1.91667 7 1.91667C5.19138 1.91667 3.73072 2.95124 2.68598 4.06563C2.16893 4.61715 1.77067 5.1709 1.50174 5.58731C1.39704 5.74943 1.31252 5.88983 1.24877 6ZM13.4167 6C13.9384 5.73913 13.9383 5.73893 13.9382 5.73871L13.9373 5.73684L13.9353 5.73286L13.9286 5.7199C13.9231 5.70908 13.9152 5.69393 13.9051 5.67476C13.8848 5.63641 13.8553 5.58188 13.8169 5.51349C13.74 5.37679 13.6268 5.18422 13.4783 4.95436C13.1821 4.49577 12.7418 3.88285 12.1651 3.2677C11.0224 2.04876 9.27471 0.75 7 0.75C4.72529 0.75 2.97761 2.04876 1.83485 3.2677C1.25815 3.88285 0.817872 4.49577 0.521696 4.95436C0.373246 5.18422 0.260045 5.37679 0.18315 5.51349C0.14468 5.58188 0.115232 5.63641 0.0949395 5.67476C0.0847914 5.69393 0.0769272 5.70908 0.0713638 5.7199L0.0647442 5.73286L0.0627311 5.73684L0.0620492 5.7382C0.061942 5.73841 0.0615841 5.73913 0.583333 6L0.0615841 5.73912C-0.020528 5.90335 -0.020528 6.09665 0.0615841 6.26087L0.583333 6C0.0615841 6.26087 0.061477 6.26066 0.0615841 6.26087L0.0627311 6.26316L0.0647442 6.26714L0.0713638 6.2801C0.0769272 6.29092 0.0847914 6.30607 0.0949395 6.32524C0.115232 6.36359 0.14468 6.41812 0.18315 6.48651C0.260045 6.62321 0.373246 6.81578 0.521696 7.04564C0.817872 7.50423 1.25815 8.11715 1.83485 8.7323C2.97761 9.95124 4.72529 11.25 7 11.25C9.27471 11.25 11.0224 9.95124 12.1651 8.7323C12.7418 8.11715 13.1821 7.50423 13.4783 7.04564C13.6268 6.81578 13.74 6.62321 13.8169 6.48651C13.8553 6.41812 13.8848 6.36359 13.9051 6.32524C13.9152 6.30607 13.9231 6.29092 13.9286 6.2801L13.9353 6.26714L13.9373 6.26316L13.938 6.2618C13.9381 6.26159 13.9384 6.26087 13.4167 6ZM13.4167 6L13.9384 6.26087C14.0205 6.09665 14.0203 5.90294 13.9382 5.73871L13.4167 6Z" fill="#7B8489"/>
<path fill-rule="evenodd" clip-rule="evenodd" d="M7.00033 4.83329C6.35599 4.83329 5.83366 5.35563 5.83366 5.99996C5.83366 6.64429 6.35599 7.16663 7.00033 7.16663C7.64466 7.16663 8.16699 6.64429 8.16699 5.99996C8.16699 5.35563 7.64466 4.83329 7.00033 4.83329ZM4.66699 5.99996C4.66699 4.71129 5.71166 3.66663 7.00033 3.66663C8.28899 3.66663 9.33366 4.71129 9.33366 5.99996C9.33366 7.28862 8.28899 8.33329 7.00033 8.33329C5.71166 8.33329 4.66699 7.28862 4.66699 5.99996Z" fill="#7B8489"/>
</svg>
